HIERARCHY
ROOT Hips
{
  OFFSET 0.0000 94.0000 0.0000
  CHANNELS 6 Xposition Yposition Zposition Yrotation Xrotation Zrotation
  JOINT Spine
  {
    OFFSET 0.0000 8.4838 -3.9483
    CHANNELS 3 Yrotation Xrotation Zrotation
    JOINT Spine1
    {
      OFFSET 0.0000 -7.5500 0.0000
      CHANNELS 3 Yrotation Xrotation Zrotation
      JOINT Spine2
      {
        OFFSET 0.0000 -7.5500 0.0000
        CHANNELS 3 Yrotation Xrotation Zrotation
        JOINT Spine3
        {
          OFFSET 0.0000 -12.7487 0.0000
          CHANNELS 3 Yrotation Xrotation Zrotation
          JOINT Neck
          {
            OFFSET 0.0000 -20.1503 0.0000
            CHANNELS 3 Yrotation Xrotation Zrotation
            JOINT Head
            {
              OFFSET 0.0000 -11.1009 0.0000
              CHANNELS 3 Yrotation Xrotation Zrotation
              JOINT HeadTip
              {
                OFFSET 0.0000 -16.8536 0.0000
                CHANNELS 3 Yrotation Xrotation Zrotation
                End Site
                {
                  OFFSET 0.0000 -8.4268 0.0000
                }
              }
            }
          }
          JOINT RightShoulder
          {
            OFFSET 7.0000 -12.3681 1.9038
            CHANNELS 3 Yrotation Xrotation Zrotation
            JOINT RightArm
            {
              OFFSET 0.0000 -13.6078 0.0000
              CHANNELS 3 Yrotation Xrotation Zrotation
              JOINT RightForeArm
              {
                OFFSET 0.0000 -27.1022 0.0000
                CHANNELS 3 Yrotation Xrotation Zrotation
                JOINT RightHand
                {
                  OFFSET 0.0000 -28.3000 0.0000
                  CHANNELS 3 Yrotation Xrotation Zrotation
                  JOINT RightHandThumb1
                  {
                    OFFSET -2.7849 -2.0780 0.1030
                    CHANNELS 3 Yrotation Xrotation Zrotation
                    JOINT RightFinger1Proximal
                    {
                      OFFSET 0.0000 -3.9891 0.0000
                      CHANNELS 3 Yrotation Xrotation Zrotation
                      JOINT RightFinger1Distal
                      {
                        OFFSET 0.0000 -3.0278 0.0000
                        CHANNELS 3 Yrotation Xrotation Zrotation
                        JOINT RightFinger1Tip
                        {
                          OFFSET 0.0000 -3.4590 0.0000
                          CHANNELS 3 Yrotation Xrotation Zrotation
                          End Site
                          {
                            OFFSET 0.0000 -1.7295 0.0000
                          }
                        }
                      }
                    }
                  }
                  JOINT RightHandEnd
                  {
                    OFFSET 1.4876 -2.4879 0.1030
                    CHANNELS 3 Yrotation Xrotation Zrotation
                    JOINT RightFinger5Proximal
                    {
                      OFFSET 0.0000 -4.7463 0.0000
                      CHANNELS 3 Yrotation Xrotation Zrotation
                      JOINT RightFinger5Medial
                      {
                        OFFSET 0.0000 -3.5000 0.0000
                        CHANNELS 3 Yrotation Xrotation Zrotation
                        JOINT RightFinger5Distal
                        {
                          OFFSET 0.0000 -2.2000 0.0000
                          CHANNELS 3 Yrotation Xrotation Zrotation
                          JOINT RightFinger5Tip
                          {
                            OFFSET 0.0000 -2.2409 0.0000
                            CHANNELS 3 Yrotation Xrotation Zrotation
                            End Site
                            {
                              OFFSET 0.0000 -1.1205 0.0000
                            }
                          }
                        }
                      }
                    }
                  }
                  JOINT RightFinger4Metacarpal
                  {
                    OFFSET 0.5475 -2.7430 0.1030
                    CHANNELS 3 Yrotation Xrotation Zrotation
                    JOINT RightFinger4Proximal
                    {
                      OFFSET 0.0000 -5.0325 0.0000
                      CHANNELS 3 Yrotation Xrotation Zrotation
                      JOINT RightFinger4Medial
                      {
                        OFFSET 0.0000 -4.3000 0.0000
                        CHANNELS 3 Yrotation Xrotation Zrotation
                        JOINT RightFinger4Distal
                        {
                          OFFSET 0.0000 -2.7732 0.0000
                          CHANNELS 3 Yrotation Xrotation Zrotation
                          JOINT RightFinger4Tip
                          {
                            OFFSET 0.0000 -2.7000 0.0000
                            CHANNELS 3 Yrotation Xrotation Zrotation
                            End Site
                            {
                              OFFSET 0.0000 -1.3500 0.0000
                            }
                          }
                        }
                      }
                    }
                  }
                  JOINT RightFinger3Metacarpal
                  {
                    OFFSET -0.5447 -2.7674 0.1030
                    CHANNELS 3 Yrotation Xrotation Zrotation
                    JOINT RightFinger3Proximal
                    {
                      OFFSET 0.0000 -5.3650 0.0000
                      CHANNELS 3 Yrotation Xrotation Zrotation
                      JOINT RightFinger3Medial
                      {
                        OFFSET 0.0000 -4.7000 0.0000
                        CHANNELS 3 Yrotation Xrotation Zrotation
                        JOINT RightFinger3Distal
                        {
                          OFFSET 0.0000 -3.1000 0.0000
                          CHANNELS 3 Yrotation Xrotation Zrotation
                          JOINT RightFinger3Tip
                          {
                            OFFSET 0.0000 -2.9982 0.0000
                            CHANNELS 3 Yrotation Xrotation Zrotation
                            End Site
                            {
                              OFFSET 0.0000 -1.4991 0.0000
                            }
                          }
                        }
                      }
                    }
                  }
                  JOINT RightFinger2Metacarpal
                  {
                    OFFSET -1.6034 -2.6456 0.1030
                    CHANNELS 3 Yrotation Xrotation Zrotation
                    JOINT RightFinger2Proximal
                    {
                      OFFSET 0.0000 -5.4138 0.0000
                      CHANNELS 3 Yrotation Xrotation Zrotation
                      JOINT RightFinger2Medial
                      {
                        OFFSET 0.0000 -4.5000 0.0000
                        CHANNELS 3 Yrotation Xrotation Zrotation
                        JOINT RightFinger2Distal
                        {
                          OFFSET 0.0000 -2.7685 0.0000
                          CHANNELS 3 Yrotation Xrotation Zrotation
                          JOINT RightFinger2Tip
                          {
                            OFFSET 0.0000 -2.7132 0.0000
                            CHANNELS 3 Yrotation Xrotation Zrotation
                            End Site
                            {
                              OFFSET 0.0000 -1.3566 0.0000
                            }
                          }
                        }
                      }
                    }
                  }
                }
              }
            }
          }
          JOINT LeftShoulder
          {
            OFFSET -7.0000 -12.3681 1.9038
            CHANNELS 3 Yrotation Xrotation Zrotation
            JOINT LeftArm
            {
              OFFSET 0.0000 -13.6078 0.0000
              CHANNELS 3 Yrotation Xrotation Zrotation
              JOINT LeftForeArm
              {
                OFFSET 0.0001 -27.1022 0.0000
                CHANNELS 3 Yrotation Xrotation Zrotation
                JOINT LeftHand
                {
                  OFFSET 0.0000 -28.3000 0.0000
                  CHANNELS 3 Yrotation Xrotation Zrotation
                  JOINT LeftHandEnd
                  {
                    OFFSET -1.4876 -2.4879 0.1030
                    CHANNELS 3 Yrotation Xrotation Zrotation
                    JOINT LeftFinger5Proximal
                    {
                      OFFSET 0.0000 -4.7463 0.0000
                      CHANNELS 3 Yrotation Xrotation Zrotation
                      JOINT LeftFinger5Medial
                      {
                        OFFSET 0.0000 -3.5000 0.0000
                        CHANNELS 3 Yrotation Xrotation Zrotation
                        JOINT LeftFinger5Distal
                        {
                          OFFSET 0.0000 -2.2000 0.0000
                          CHANNELS 3 Yrotation Xrotation Zrotation
                          JOINT LeftFinger5Tip
                          {
                            OFFSET 0.0000 -2.2409 0.0000
                            CHANNELS 3 Yrotation Xrotation Zrotation
                            End Site
                            {
                              OFFSET 0.0000 -1.1205 0.0000
                            }
                          }
                        }
                      }
                    }
                  }
                  JOINT LeftFinger4Metacarpal
                  {
                    OFFSET -0.5475 -2.7430 0.1030
                    CHANNELS 3 Yrotation Xrotation Zrotation
                    JOINT LeftFinger4Proximal
                    {
                      OFFSET 0.0000 -5.0325 0.0000
                      CHANNELS 3 Yrotation Xrotation Zrotation
                      JOINT LeftFinger4Medial
                      {
                        OFFSET 0.0000 -4.3000 0.0000
                        CHANNELS 3 Yrotation Xrotation Zrotation
                        JOINT LeftFinger4Distal
                        {
                          OFFSET 0.0000 -2.7732 0.0000
                          CHANNELS 3 Yrotation Xrotation Zrotation
                          JOINT LeftFinger4Tip
                          {
                            OFFSET 0.0000 -2.7000 0.0000
                            CHANNELS 3 Yrotation Xrotation Zrotation
                            End Site
                            {
                              OFFSET 0.0000 -1.3500 0.0000
                            }
                          }
                        }
                      }
                    }
                  }
                  JOINT LeftFinger3Metacarpal
                  {
                    OFFSET 0.5447 -2.7674 0.1030
                    CHANNELS 3 Yrotation Xrotation Zrotation
                    JOINT LeftFinger3Proximal
                    {
                      OFFSET 0.0000 -5.3650 0.0000
                      CHANNELS 3 Yrotation Xrotation Zrotation
                      JOINT LeftFinger3Medial
                      {
                        OFFSET 0.0000 -4.7000 0.0000
                        CHANNELS 3 Yrotation Xrotation Zrotation
                        JOINT LeftFinger3Distal
                        {
                          OFFSET 0.0000 -3.1000 0.0000
                          CHANNELS 3 Yrotation Xrotation Zrotation
                          JOINT LeftFinger3Tip
                          {
                            OFFSET 0.0000 -2.9982 0.0000
                            CHANNELS 3 Yrotation Xrotation Zrotation
                            End Site
                            {
                              OFFSET 0.0000 -1.4991 0.0000
                            }
                          }
                        }
                      }
                    }
                  }
                  JOINT LeftFinger2Metacarpal
                  {
                    OFFSET 1.6034 -2.6456 0.1030
                    CHANNELS 3 Yrotation Xrotation Zrotation
                    JOINT LeftFinger2Proximal
                    {
                      OFFSET 0.0000 -5.4138 0.0000
                      CHANNELS 3 Yrotation Xrotation Zrotation
                      JOINT LeftFinger2Medial
                      {
                        OFFSET 0.0000 -4.5000 0.0000
                        CHANNELS 3 Yrotation Xrotation Zrotation
                        JOINT LeftFinger2Distal
                        {
                          OFFSET 0.0000 -2.7685 0.0000
                          CHANNELS 3 Yrotation Xrotation Zrotation
                          JOINT LeftFinger2Tip
                          {
                            OFFSET 0.0000 -2.7131 0.0000
                            CHANNELS 3 Yrotation Xrotation Zrotation
                            End Site
                            {
                              OFFSET 0.0000 -1.3566 0.0000
                            }
                          }
                        }
                      }
                    }
                  }
                  JOINT LeftHandThumb1
                  {
                    OFFSET 2.7849 -2.0780 0.1030
                    CHANNELS 3 Yrotation Xrotation Zrotation
                    JOINT LeftFinger1Proximal
                    {
                      OFFSET 0.0000 -3.9891 0.0000
                      CHANNELS 3 Yrotation Xrotation Zrotation
                      JOINT LeftFinger1Distal
                      {
                        OFFSET 0.0000 -3.0278 0.0000
                        CHANNELS 3 Yrotation Xrotation Zrotation
                        JOINT LeftFinger1Tip
                        {
                          OFFSET 0.0000 -3.4590 0.0000
                          CHANNELS 3 Yrotation Xrotation Zrotation
                          End Site
                          {
                            OFFSET 0.0000 -1.7295 0.0000
                          }
                        }
                      }
                    }
                  }
                }
              }
            }
          }
        }
      }
    }
  }
  JOINT RightUpLeg
  {
    OFFSET -8.1000 0.0000 0.0000
    CHANNELS 3 Yrotation Xrotation Zrotation
    JOINT RightLeg
    {
      OFFSET 0.0000 -43.2000 0.0000
      CHANNELS 3 Yrotation Xrotation Zrotation
      JOINT RightFoot
      {
        OFFSET 0.0000 -43.3000 -0.0626
        CHANNELS 3 Yrotation Xrotation Zrotation
        JOINT RightToeBase
        {
          OFFSET 0.0000 -13.1694 6.2394
          CHANNELS 3 Yrotation Xrotation Zrotation
          JOINT RightToeTip
          {
            OFFSET 0.0000 -7.4457 1.2571
            CHANNELS 3 Yrotation Xrotation Zrotation
            End Site
            {
              OFFSET 0.0000 -3.7228 0.6286
            }
          }
        }
      }
    }
  }
  JOINT LeftUpLeg
  {
    OFFSET 8.1000 0.0000 0.0000
    CHANNELS 3 Yrotation Xrotation Zrotation
    JOINT LeftLeg
    {
      OFFSET 0.0000 -43.2000 0.0000
      CHANNELS 3 Yrotation Xrotation Zrotation
      JOINT LeftFoot
      {
        OFFSET 0.0000 -43.3000 -0.0626
        CHANNELS 3 Yrotation Xrotation Zrotation
        JOINT LeftToeBase
        {
          OFFSET 0.0000 -13.1694 6.2394
          CHANNELS 3 Yrotation Xrotation Zrotation
          JOINT LeftToeTip
          {
            OFFSET 0.0000 -7.4457 1.2571
            CHANNELS 3 Yrotation Xrotation Zrotation
            End Site
            {
              OFFSET 0.0000 -3.7228 0.6286
            }
          }
        }
      }
    }
  }
}
MOTION
Frames: 4
Frame Time: 0.033333
-16.4673 96.7185 188.2974 55.3589 2.9778 -10.5619 0.0000 0.0000 -180.0000 0.0000 0.0000 0.0000 0.0000 0.0000 0.0000 -4.2883 0.0000 0.0000 0.0000 0.0000 0.0000 -0.0768 0.1033 -0.0907 0.0000 0.0000 0.0000 0.0000 0.0000 90.0009 80.9148 -9.9359 -60.9308 0.0000 0.0000 -66.4586 0.0000 0.0000 0.0000 104.2979 28.5705 -11.4108 0.0000 -9.0000 0.0000 0.0000 -9.0000 0.0000 0.0000 0.0003 0.0000 -5.9303 -5.1186 20.5898 -10.8000 -18.0000 -9.0000 0.0000 -18.0000 0.0000 0.0000 -18.0000 0.0000 0.0000 0.0000 0.0000 -2.7258 -2.5476 10.1280 -5.4000 -18.0000 -9.0000 0.0000 -18.0000 0.0000 0.0000 -18.0000 0.0000 0.0000 0.0000 0.0000 0.0000 0.0000 0.0000 0.0000 -18.0000 -5.4000 0.0000 -18.0000 0.0000 0.0000 -18.0000 0.0000 0.0000 0.0000 0.0000 1.2310 0.2170 -9.9977 0.0000 -18.0000 1.8000 0.0000 -18.0000 0.0000 0.0000 -18.0000 0.0000 0.0000 0.0000 0.0000 0.0000 0.0000 -90.0010 -46.1537 -59.1010 -58.4827 0.1100 0.4541 24.4079 0.0000 0.0000 0.0000 5.9303 -5.1186 -20.5898 10.8000 -18.0000 9.0000 0.0000 -18.0000 0.0000 0.0000 -18.0000 0.0000 0.0000 0.0000 0.0000 2.7258 -2.5476 -10.1280 5.4000 -18.0000 9.0000 0.0000 -18.0000 0.0000 0.0000 -18.0000 0.0000 0.0000 0.0000 0.0000 0.0000 0.0000 0.0000 0.0000 -18.0000 5.4000 0.0000 -18.0000 0.0000 0.0000 -18.0000 0.0000 0.0000 0.0000 0.0000 -1.2310 0.2170 9.9977 0.0000 -18.0000 -1.8000 0.0000 -18.0000 0.0000 0.0000 -18.0000 0.0000 0.0002 0.0000 0.0000 -104.2979 28.5705 11.4108 0.0000 -9.0000 0.0000 0.0000 -9.0000 0.0000 0.0000 0.0004 0.0000 46.3748 -6.4394 -6.5148 0.0000 0.0000 35.8514 -270.0000 90.0000 0.0000 0.0000 -0.9009 -0.0010 0.0000 0.0000 0.0000 -87.2236 22.6137 45.8580 0.0001 -0.0001 -41.3884 270.0001 90.0000 0.0000 0.0000 -0.2185 -2.0354 0.0000 0.0000 0.0000 
-16.5558 96.6177 188.9823 55.3632 3.0699 -10.6645 0.0000 0.0000 -180.0000 0.0000 0.0000 0.0000 0.0000 0.0000 0.0000 -4.8307 0.0000 0.0000 0.0000 0.0000 0.0000 -0.1785 -0.0560 -0.0586 0.0000 0.0000 0.0000 0.0000 0.0000 90.0009 83.2454 -11.2854 -62.4719 0.0000 0.0000 -62.2907 0.0000 0.0000 0.0000 104.2979 28.5705 -11.4108 0.0000 -9.0000 0.0000 0.0000 -9.0000 0.0000 0.0000 0.0003 0.0000 -5.9303 -5.1186 20.5898 -10.8000 -18.0000 -9.0000 0.0000 -18.0000 0.0000 0.0000 -18.0000 0.0000 0.0000 0.0000 0.0000 -2.7258 -2.5476 10.1280 -5.4000 -18.0000 -9.0000 0.0000 -18.0000 0.0000 0.0000 -18.0000 0.0000 0.0000 0.0000 0.0000 0.0000 0.0000 0.0000 0.0000 -18.0000 -5.4000 0.0000 -18.0000 0.0000 0.0000 -18.0000 0.0000 0.0000 0.0000 0.0000 1.2310 0.2170 -9.9977 0.0000 -18.0000 1.8000 0.0000 -18.0000 0.0000 0.0000 -18.0000 0.0000 0.0000 0.0000 0.0000 0.0000 0.0000 -90.0010 -46.3364 -60.1858 -57.8592 0.1422 0.5947 24.2103 0.0000 0.0000 0.0000 5.9303 -5.1186 -20.5898 10.8000 -18.0000 9.0000 0.0000 -18.0000 0.0000 0.0000 -18.0000 0.0000 0.0000 0.0000 0.0000 2.7258 -2.5476 -10.1280 5.4000 -18.0000 9.0000 0.0000 -18.0000 0.0000 0.0000 -18.0000 0.0000 0.0000 0.0000 0.0000 0.0000 0.0000 0.0000 0.0000 -18.0000 5.4000 0.0000 -18.0000 0.0000 0.0000 -18.0000 0.0000 0.0000 0.0000 0.0000 -1.2310 0.2170 9.9977 0.0000 -18.0000 -1.8000 0.0000 -18.0000 0.0000 0.0000 -18.0000 0.0000 0.0002 0.0000 0.0000 -104.2979 28.5705 11.4108 0.0000 -9.0000 0.0000 0.0000 -9.0000 0.0000 0.0000 0.0004 0.0000 47.5787 -6.6936 -6.4309 0.0000 0.0000 35.7572 -270.0000 90.0000 0.0000 0.0000 -0.9161 -0.0010 0.0000 0.0000 0.0000 -86.9961 22.6402 45.6557 0.0001 -0.0001 -41.1810 270.0002 90.0000 0.0000 0.0000 -0.2161 -2.0264 0.0000 0.0000 0.0000 
-16.5678 96.3546 189.6721 55.6312 3.2101 -10.7751 0.0000 0.0000 -180.0000 0.0000 0.0000 0.0000 0.0000 0.0000 0.0000 -5.3007 0.0000 0.0000 0.0000 0.0000 0.0000 -0.0882 -0.1726 -0.0319 0.0000 0.0000 0.0000 0.0000 0.0000 90.0009 84.5989 -11.8492 -62.9149 0.0000 0.0000 -59.4519 0.0000 0.0000 0.0000 104.2979 28.5705 -11.4108 0.0000 -9.0000 0.0000 0.0000 -9.0000 0.0000 0.0000 0.0003 0.0000 -5.9303 -5.1186 20.5898 -10.8000 -18.0000 -9.0000 0.0000 -18.0000 0.0000 0.0000 -18.0000 0.0000 0.0000 0.0000 0.0000 -2.7258 -2.5476 10.1280 -5.4000 -18.0000 -9.0000 0.0000 -18.0000 0.0000 0.0000 -18.0000 0.0000 0.0000 0.0000 0.0000 0.0000 0.0000 0.0000 0.0000 -18.0000 -5.4000 0.0000 -18.0000 0.0000 0.0000 -18.0000 0.0000 0.0000 0.0000 0.0000 1.2310 0.2170 -9.9977 0.0000 -18.0000 1.8000 0.0000 -18.0000 0.0000 0.0000 -18.0000 0.0000 0.0000 0.0000 0.0000 0.0000 0.0000 -90.0010 -47.9421 -60.9665 -55.9550 0.1785 0.7596 23.9467 0.0000 0.0000 0.0000 5.9303 -5.1186 -20.5898 10.8000 -18.0000 9.0000 0.0000 -18.0000 0.0000 0.0000 -18.0000 0.0000 0.0000 0.0000 0.0000 2.7258 -2.5476 -10.1280 5.4000 -18.0000 9.0000 0.0000 -18.0000 0.0000 0.0000 -18.0000 0.0000 0.0000 0.0000 0.0000 0.0000 0.0000 0.0000 0.0000 -18.0000 5.4000 0.0000 -18.0000 0.0000 0.0000 -18.0000 0.0000 0.0000 0.0000 0.0000 -1.2310 0.2170 9.9977 0.0000 -18.0000 -1.8000 0.0000 -18.0000 0.0000 0.0000 -18.0000 0.0000 0.0002 0.0000 0.0000 -104.2979 28.5705 11.4108 0.0000 -9.0000 0.0000 0.0000 -9.0000 0.0000 0.0000 0.0004 0.0000 49.1290 -7.2268 -5.7841 0.0000 0.0000 35.5168 -270.0000 90.0000 0.0000 0.0000 -0.9747 -0.0008 0.0000 0.0000 0.0000 -87.3497 22.9599 45.5728 0.0001 -0.0001 -41.1359 270.0001 90.0000 0.0000 0.0000 -0.2228 -2.0587 0.0000 0.0000 0.0000 
-16.5186 96.1125 190.3661 56.1201 3.4041 -10.9062 0.0000 0.0000 -180.0000 0.0000 0.0000 0.0000 0.0000 0.0000 0.0000 -5.6640 0.0000 0.0000 0.0000 0.0000 0.0000 0.1066 -0.2532 0.0024 0.0000 0.0000 0.0000 0.0000 0.0000 90.0009 85.3911 -11.8646 -62.9430 0.0000 0.0000 -57.7014 0.0000 0.0000 0.0000 104.2979 28.5705 -11.4108 0.0000 -9.0000 0.0000 0.0000 -9.0000 0.0000 0.0000 0.0003 0.0000 -5.9303 -5.1186 20.5898 -10.8000 -18.0000 -9.0000 0.0000 -18.0000 0.0000 0.0000 -18.0000 0.0000 0.0000 0.0000 0.0000 -2.7258 -2.5476 10.1280 -5.4000 -18.0000 -9.0000 0.0000 -18.0000 0.0000 0.0000 -18.0000 0.0000 0.0000 0.0000 0.0000 0.0000 0.0000 0.0000 0.0000 -18.0000 -5.4000 0.0000 -18.0000 0.0000 0.0000 -18.0000 0.0000 0.0000 0.0000 0.0000 1.2310 0.2170 -9.9977 0.0000 -18.0000 1.8000 0.0000 -18.0000 0.0000 0.0000 -18.0000 0.0000 0.0000 0.0000 0.0000 0.0000 0.0000 -90.0010 -52.2708 -62.3385 -51.4645 0.2622 1.1626 23.1543 0.0000 0.0000 0.0000 5.9303 -5.1186 -20.5898 10.8000 -18.0000 9.0000 0.0000 -18.0000 0.0000 0.0000 -18.0000 0.0000 0.0000 0.0000 0.0000 2.7258 -2.5476 -10.1280 5.4000 -18.0000 9.0000 0.0000 -18.0000 0.0000 0.0000 -18.0000 0.0000 0.0000 0.0000 0.0000 0.0000 0.0000 0.0000 0.0000 -18.0000 5.4000 0.0000 -18.0000 0.0000 0.0000 -18.0000 0.0000 0.0000 0.0000 0.0000 -1.2310 0.2170 9.9977 0.0000 -18.0000 -1.8000 0.0000 -18.0000 0.0000 0.0000 -18.0000 0.0000 0.0002 0.0000 0.0000 -104.2979 28.5705 11.4108 0.0000 -9.0000 0.0000 0.0000 -9.0000 0.0000 0.0000 0.0004 0.0000 50.5829 -7.9680 -4.9194 0.0000 0.0000 35.1950 -270.0001 90.0000 0.0000 0.0000 -1.0493 -0.0005 0.0000 0.0000 0.0000 -87.9895 23.4731 45.5851 0.0001 -0.0001 -41.0424 270.0001 90.0000 0.0000 0.0000 -0.2355 -2.1156 0.0000 0.0000 0.0000 
